<svg xmlns="http://www.w3.org/2000/svg" width="1440" height="900" viewBox="0 0 1440 900">
  <defs>
    <linearGradient id="bg" x1="0" x2="1" y1="0" y2="1"><stop offset="0" stop-color="#0b1118"/><stop offset="1" stop-color="#151718"/></linearGradient>
    <linearGradient id="mint" x1="0" x2="1"><stop offset="0" stop-color="#47d8b5"/><stop offset="1" stop-color="#e0b86d"/></linearGradient>
    <filter id="s"><feDropShadow dx="0" dy="18" stdDeviation="24" flood-color="#000" flood-opacity=".32"/></filter>
  </defs>
  <rect width="1440" height="900" fill="url(#bg)"/>
  <rect x="54" y="42" width="1332" height="816" rx="32" fill="#111922" stroke="#2a3540"/>
  <text x="96" y="103" fill="#f4f0ea" font-family="Inter, Arial" font-size="32" font-weight="850">Outfit preview</text>
  <text x="96" y="134" fill="#8e9aa6" font-family="Inter, Arial" font-size="15">See the recommendation before you commit it to the wear log.</text>
  <rect x="96" y="177" width="548" height="614" rx="30" fill="#151f28" stroke="#2d3a45" filter="url(#s)"/>
  <rect x="138" y="217" width="464" height="486" rx="26" fill="#d9d6cd"/>
  <ellipse cx="370" cy="320" rx="56" ry="60" fill="#87684e"/>
  <rect x="314" y="370" width="112" height="168" rx="42" fill="#f5f0e6"/>
  <rect x="289" y="500" width="62" height="158" rx="24" fill="#252a30"/>
  <rect x="389" y="500" width="62" height="158" rx="24" fill="#252a30"/>
  <rect x="284" y="653" width="76" height="22" rx="11" fill="#9d6b39"/>
  <rect x="382" y="653" width="76" height="22" rx="11" fill="#9d6b39"/>
  <text x="143" y="743" fill="#798794" font-family="Inter, Arial" font-size="13">Generated mockup</text>
  <text x="468" y="743" fill="#798794" font-family="Inter, Arial" font-size="13">Studio view</text>
  <rect x="704" y="177" width="596" height="156" rx="26" fill="#151f28" stroke="#2d3a45"/>
  <text x="736" y="216" fill="#4fd8b8" font-family="Inter, Arial" font-size="13" font-weight="850" letter-spacing="1.6">LOOK 01</text>
  <text x="736" y="254" fill="#f6f1eb" font-family="Inter, Arial" font-size="28" font-weight="850">Quiet dinner polish</text>
  <text x="736" y="292" fill="#b7c2ca" font-family="Inter, Arial" font-size="15">Soft ivory up top, structured charcoal below, and warm leather at the shoe. It reads intentional without trying too hard.</text>
  <rect x="704" y="361" width="596" height="226" rx="26" fill="#101820" stroke="#2d3a45"/>
  <text x="736" y="400" fill="#f3efe9" font-family="Inter, Arial" font-size="17" font-weight="800">Pieces</text>
  <g font-family="Inter, Arial">
    <rect x="736" y="426" width="160" height="118" rx="18" fill="#1b2530"/>
    <rect x="758" y="446" width="116" height="58" rx="18" fill="#f3efe8"/>
    <text x="758" y="529" fill="#dce4e8" font-size="13" font-weight="750">Ivory knit</text>
    <rect x="916" y="426" width="160" height="118" rx="18" fill="#1b2530"/>
    <rect x="972" y="447" width="20" height="58" rx="8" fill="#31363b"/><rect x="1002" y="447" width="20" height="58" rx="8" fill="#252a30"/>
    <text x="938" y="529" fill="#dce4e8" font-size="13" font-weight="750">Charcoal trouser</text>
    <rect x="1096" y="426" width="160" height="118" rx="18" fill="#1b2530"/>
    <ellipse cx="1176" cy="477" rx="45" ry="16" fill="#9a6938"/>
    <text x="1118" y="529" fill="#dce4e8" font-size="13" font-weight="750">Tan loafers</text>
  </g>
  <rect x="704" y="615" width="280" height="176" rx="26" fill="#101820" stroke="#2d3a45"/>
  <text x="736" y="654" fill="#f3efe9" font-family="Inter, Arial" font-size="17" font-weight="800">Confidence</text>
  <circle cx="780" cy="715" r="40" fill="none" stroke="#26333e" stroke-width="12"/>
  <path d="M780 675 a40 40 0 1 1 -29 67" fill="none" stroke="#4fd8b8" stroke-width="12" stroke-linecap="round"/>
  <text x="759" y="723" fill="#f6f1eb" font-family="Inter, Arial" font-size="22" font-weight="850">87</text>
  <text x="842" y="706" fill="#b7c2ca" font-family="Inter, Arial" font-size="14">Strong match for casual dinner</text>
  <text x="842" y="731" fill="#7f8d99" font-family="Inter, Arial" font-size="13">No repeated items this week</text>
  <rect x="1018" y="615" width="282" height="176" rx="26" fill="#101820" stroke="#2d3a45"/>
  <text x="1050" y="654" fill="#f3efe9" font-family="Inter, Arial" font-size="17" font-weight="800">Actions</text>
  <rect x="1050" y="681" width="214" height="46" rx="15" fill="url(#mint)"/>
  <text x="1107" y="711" fill="#06120f" font-family="Inter, Arial" font-size="14" font-weight="900">Log as worn</text>
  <rect x="1050" y="741" width="214" height="36" rx="13" fill="#1e2933"/>
  <text x="1114" y="764" fill="#dce6ea" font-family="Inter, Arial" font-size="13" font-weight="750">Regenerate</text>
</svg>
