<svg xmlns="http://www.w3.org/2000/svg" width="1440" height="900" viewBox="0 0 1440 900">
  <defs>
    <linearGradient id="bg" x1="0" x2="1" y1="0" y2="1"><stop offset="0" stop-color="#0c1117"></stop><stop offset="1" stop-color="#17130f"></stop></linearGradient>
    <linearGradient id="gold" x1="0" x2="1"><stop offset="0" stop-color="#e0ba72"></stop><stop offset="1" stop-color="#57d4b6"></stop></linearGradient>
    <filter id="soft"><feDropShadow dx="0" dy="12" stdDeviation="18" flood-color="#000" flood-opacity=".28"></feDropShadow></filter>
  </defs>
  <rect width="1440" height="900" fill="url(#bg)"></rect>
  <rect x="36" y="34" width="1368" height="832" rx="28" fill="#111820" stroke="#26313b"></rect>
  <text x="82" y="96" fill="#f5f1ea" font-family="Inter, Arial" font-size="34" font-weight="850">Wardrobe</text>
  <text x="82" y="129" fill="#8e9aa7" font-family="Inter, Arial" font-size="15">Fast scan, smart tags, edit only what needs a human eye.</text>
  <rect x="1058" y="64" width="126" height="44" rx="14" fill="#202a33" stroke="#303d48"></rect>
  <text x="1090" y="92" fill="#d9e2e8" font-family="Inter, Arial" font-size="14" font-weight="700">Filter</text>
  <rect x="1200" y="64" width="142" height="44" rx="14" fill="url(#gold)"></rect>
  <text x="1234" y="92" fill="#07120f" font-family="Inter, Arial" font-size="14" font-weight="850">Upload</text>
  <rect x="82" y="166" width="1260" height="112" rx="26" fill="#0f161d" stroke="#2a3742"></rect>
  <rect x="111" y="194" width="56" height="56" rx="18" fill="#17241f" stroke="#31594c"></rect>
  <path d="M139 211 v25 M126 224 h26" stroke="#52d8b9" stroke-width="5" stroke-linecap="round"></path>
  <text x="194" y="215" fill="#edf3ef" font-family="Inter, Arial" font-size="18" font-weight="800">Drop new wardrobe photos</text>
  <text x="194" y="244" fill="#8d9aa6" font-family="Inter, Arial" font-size="14">Bulk upload, auto-crop, AI tags, then quick review.</text>
  <rect x="1076" y="200" width="226" height="44" rx="14" fill="#1a242d"></rect>
  <text x="1125" y="228" fill="#c9d4dc" font-family="Inter, Arial" font-size="14" font-weight="700">Import from phone</text>
  <g font-family="Inter, Arial">
    <rect x="82" y="318" width="180" height="42" rx="14" fill="#18342e"></rect><text x="116" y="345" fill="#dffcf5" font-size="14" font-weight="800">All items 42</text>
    <rect x="276" y="318" width="120" height="42" rx="14" fill="#18212a"></rect><text x="310" y="345" fill="#95a2ae" font-size="14">Tops</text>
    <rect x="410" y="318" width="140" height="42" rx="14" fill="#18212a"></rect><text x="444" y="345" fill="#95a2ae" font-size="14">Bottoms</text>
    <rect x="564" y="318" width="118" height="42" rx="14" fill="#18212a"></rect><text x="598" y="345" fill="#95a2ae" font-size="14">Shoes</text>
  </g>
  <g filter="url(#soft)" font-family="Inter, Arial">
    <g transform="translate(82 396)">
      <rect width="220" height="300" rx="22" fill="#172029" stroke="#2b3843"></rect>
      <rect x="18" y="18" width="184" height="184" rx="18" fill="#ddd5c8"></rect>
      <rect x="51" y="43" width="118" height="132" rx="40" fill="#f3eee3"></rect>
      <text x="18" y="235" fill="#edf1f3" font-size="15" font-weight="800">Ivory ribbed knit</text>
      <text x="18" y="260" fill="#8f9ba7" font-size="13">tops · smart casual</text>
      <rect x="18" y="276" width="52" height="8" rx="4" fill="#e8ddca"></rect><rect x="78" y="276" width="52" height="8" rx="4" fill="#52d8b9"></rect>
    </g>
    <g transform="translate(326 396)">
      <rect width="220" height="300" rx="22" fill="#172029" stroke="#2b3843"></rect>
      <rect x="18" y="18" width="184" height="184" rx="18" fill="#292f36"></rect>
      <rect x="64" y="38" width="38" height="138" rx="14" fill="#2f3439"></rect><rect x="112" y="38" width="38" height="138" rx="14" fill="#24292f"></rect>
      <text x="18" y="235" fill="#edf1f3" font-size="15" font-weight="800">Charcoal trousers</text>
      <text x="18" y="260" fill="#8f9ba7" font-size="13">bottoms · formal</text>
      <rect x="18" y="276" width="52" height="8" rx="4" fill="#505963"></rect><rect x="78" y="276" width="52" height="8" rx="4" fill="#d5ac64"></rect>
    </g>
    <g transform="translate(570 396)">
      <rect width="220" height="300" rx="22" fill="#172029" stroke="#2b3843"></rect>
      <rect x="18" y="18" width="184" height="184" rx="18" fill="#d0a45e"></rect>
      <ellipse cx="100" cy="112" rx="64" ry="26" fill="#6b4b2a"></ellipse><ellipse cx="122" cy="128" rx="58" ry="22" fill="#8b6334"></ellipse>
      <text x="18" y="235" fill="#edf1f3" font-size="15" font-weight="800">Tan suede loafers</text>
      <text x="18" y="260" fill="#8f9ba7" font-size="13">shoes · smart casual</text>
      <rect x="18" y="276" width="52" height="8" rx="4" fill="#d5ac64"></rect><rect x="78" y="276" width="52" height="8" rx="4" fill="#5bd2bb"></rect>
    </g>
    <g transform="translate(814 396)">
      <rect width="220" height="300" rx="22" fill="#172029" stroke="#2b3843"></rect>
      <rect x="18" y="18" width="184" height="184" rx="18" fill="#536674"></rect>
      <rect x="55" y="42" width="110" height="132" rx="32" fill="#294052"></rect>
      <text x="18" y="235" fill="#edf1f3" font-size="15" font-weight="800">Ink chore jacket</text>
      <text x="18" y="260" fill="#8f9ba7" font-size="13">outerwear · casual</text>
      <rect x="18" y="276" width="52" height="8" rx="4" fill="#4e748b"></rect><rect x="78" y="276" width="52" height="8" rx="4" fill="#e0ba72"></rect>
    </g>
    <g transform="translate(1058 396)">
      <rect width="220" height="300" rx="22" fill="#172029" stroke="#2b3843"></rect>
      <rect x="18" y="18" width="184" height="184" rx="18" fill="#e8e0d0"></rect>
      <circle cx="110" cy="110" r="54" fill="none" stroke="#191919" stroke-width="14"></circle>
      <text x="18" y="235" fill="#edf1f3" font-size="15" font-weight="800">Black leather belt</text>
      <text x="18" y="260" fill="#8f9ba7" font-size="13">accessory · formal</text>
      <rect x="18" y="276" width="52" height="8" rx="4" fill="#1e2022"></rect><rect x="78" y="276" width="52" height="8" rx="4" fill="#d5ac64"></rect>
    </g>
  </g>
  <rect x="82" y="742" width="1260" height="64" rx="20" fill="#0f161d" stroke="#283540"></rect>
  <text x="112" y="781" fill="#8d9aa6" font-family="Inter, Arial" font-size="14">Review queue: 3 items need category confirmation</text>
  <rect x="1110" y="756" width="198" height="36" rx="12" fill="#24303a"></rect>
  <text x="1157" y="779" fill="#dce6ea" font-family="Inter, Arial" font-size="13" font-weight="800">Review tags</text>
</svg>