<svg xmlns="http://www.w3.org/2000/svg" width="1440" height="900" viewBox="0 0 1440 900">
  <defs>
    <linearGradient id="bg" x1="0" x2="1" y1="0" y2="1"><stop offset="0" stop-color="#0b1016"></stop><stop offset="1" stop-color="#17140f"></stop></linearGradient>
    <linearGradient id="a" x1="0" x2="1"><stop offset="0" stop-color="#48d7b7"></stop><stop offset="1" stop-color="#ddb46b"></stop></linearGradient>
  </defs>
  <rect width="1440" height="900" fill="url(#bg)"></rect>
  <rect x="56" y="42" width="1328" height="816" rx="32" fill="#111922" stroke="#2a3540"></rect>
  <text x="98" y="103" fill="#f4f0ea" font-family="Inter, Arial" font-size="32" font-weight="850">Wear log</text>
  <text x="98" y="134" fill="#8e9aa6" font-family="Inter, Arial" font-size="15">A clean history that helps the adviser avoid repeats and learn what you actually wear.</text>
  <rect x="98" y="181" width="378" height="638" rx="30" fill="#151f28" stroke="#2d3a45"></rect>
  <text x="134" y="226" fill="#f2eee8" font-family="Inter, Arial" font-size="19" font-weight="850">Log today</text>
  <text x="134" y="257" fill="#8e9aa6" font-family="Inter, Arial" font-size="14">Select pieces or accept a suggestion.</text>
  <rect x="134" y="296" width="274" height="42" rx="14" fill="#19352f"></rect>
  <text x="162" y="323" fill="#dffcf5" font-family="Inter, Arial" font-size="14" font-weight="800">Ivory ribbed knit</text>
  <rect x="134" y="352" width="274" height="42" rx="14" fill="#19352f"></rect>
  <text x="162" y="379" fill="#dffcf5" font-family="Inter, Arial" font-size="14" font-weight="800">Charcoal trousers</text>
  <rect x="134" y="408" width="274" height="42" rx="14" fill="#19352f"></rect>
  <text x="162" y="435" fill="#dffcf5" font-family="Inter, Arial" font-size="14" font-weight="800">Tan suede loafers</text>
  <rect x="134" y="480" width="274" height="88" rx="18" fill="#0f171e" stroke="#2b3843"></rect>
  <text x="158" y="513" fill="#73828e" font-family="Inter, Arial" font-size="14">Dinner, felt great</text>
  <rect x="134" y="602" width="274" height="48" rx="16" fill="url(#a)"></rect>
  <text x="230" y="632" fill="#06120f" font-family="Inter, Arial" font-size="14" font-weight="900">Log outfit</text>
  <text x="134" y="721" fill="#d8e2e7" font-family="Inter, Arial" font-size="16" font-weight="800">Rotation health</text>
  <rect x="134" y="746" width="274" height="10" rx="5" fill="#26333e"></rect>
  <rect x="134" y="746" width="198" height="10" rx="5" fill="url(#a)"></rect>
  <text x="134" y="782" fill="#8e9aa6" font-family="Inter, Arial" font-size="13">72 percent of wardrobe used this month</text>
  <rect x="520" y="181" width="818" height="638" rx="30" fill="#101820" stroke="#2d3a45"></rect>
  <text x="558" y="226" fill="#f2eee8" font-family="Inter, Arial" font-size="19" font-weight="850">Recent history</text>
  <g font-family="Inter, Arial">
    <rect x="558" y="263" width="742" height="104" rx="22" fill="#151f28" stroke="#2d3a45"></rect>
    <text x="590" y="303" fill="#e9f0ef" font-size="16" font-weight="850">Quiet dinner polish</text>
    <text x="590" y="332" fill="#8e9aa6" font-size="13">Today · suggestion · dinner</text>
    <rect x="1046" y="291" width="64" height="34" rx="12" fill="#242f39"></rect><text x="1065" y="313" fill="#cdd8de" font-size="12" font-weight="800">3 pcs</text>
    <rect x="1122" y="291" width="92" height="34" rx="12" fill="#1b342f"></rect><text x="1144" y="313" fill="#dffcf5" font-size="12" font-weight="800">Loved</text>
    <text x="1240" y="315" fill="#dd776f" font-size="13" font-weight="800">Remove</text>
    <rect x="558" y="391" width="742" height="104" rx="22" fill="#151f28" stroke="#2d3a45"></rect>
    <text x="590" y="431" fill="#e9f0ef" font-size="16" font-weight="850">Work meeting layers</text>
    <text x="590" y="460" fill="#8e9aa6" font-size="13">Yesterday · manual · work</text>
    <rect x="1046" y="419" width="64" height="34" rx="12" fill="#242f39"></rect><text x="1065" y="441" fill="#cdd8de" font-size="12" font-weight="800">4 pcs</text>
    <rect x="1122" y="419" width="92" height="34" rx="12" fill="#302a1f"></rect><text x="1149" y="441" fill="#f0d49a" font-size="12" font-weight="800">Warm</text>
    <text x="1240" y="443" fill="#dd776f" font-size="13" font-weight="800">Remove</text>
    <rect x="558" y="519" width="742" height="104" rx="22" fill="#151f28" stroke="#2d3a45"></rect>
    <text x="590" y="559" fill="#e9f0ef" font-size="16" font-weight="850">Travel uniform</text>
    <text x="590" y="588" fill="#8e9aa6" font-size="13">May 6 · manual · travel</text>
    <rect x="1046" y="547" width="64" height="34" rx="12" fill="#242f39"></rect><text x="1065" y="569" fill="#cdd8de" font-size="12" font-weight="800">5 pcs</text>
    <rect x="1122" y="547" width="92" height="34" rx="12" fill="#1d2d38"></rect><text x="1142" y="569" fill="#b9d9ea" font-size="12" font-weight="800">Comfy</text>
    <text x="1240" y="571" fill="#dd776f" font-size="13" font-weight="800">Remove</text>
  </g>
  <rect x="558" y="682" width="742" height="78" rx="22" fill="#0d151c" stroke="#2d3a45"></rect>
  <text x="590" y="716" fill="#e6eeee" font-family="Inter, Arial" font-size="15" font-weight="850">Adviser insight</text>
  <text x="590" y="743" fill="#8e9aa6" font-family="Inter, Arial" font-size="14">You repeat charcoal bottoms often. Add one lighter trouser to unlock more warm-weather looks.</text>
</svg>